<svg xmlns="http://www.w3.org/2000/svg" viewBox="0 0 160 160"><path fill="#82DEF4" d="M10 111c8.7-22.3 29-24.6 48.4-21.6 13.3 2 27 5.2 43.9 1.1 25.1-6.1 43-45.6 9.2-84.1 60.9 4.3 43 115.4-7.7 128.1-48 11.8-58.4-36.7-93.8-23.5z"/><path fill="#ADCCEA" d="M62.9 66l-37.8 89.9 9.5 4.1 34.7-92.6-6.4-1.4z"/><path fill="#6EA3D3" d="M65.9 57.5l-8.1 8.6 16.9 3.4L76 56.8c-2.1-3.4-5.7-2.9-10.1.7z"/><path fill="#B7E0FA" d="M46 65.8l14.5-24.3-11.9-13.9 20 2.1L87.4 0 89 31l26.3.8L90.6 46l1.1 34.1-18.9-24.8L46 65.8z"/><path fill="#71A2CD" d="M74.5 41.1l-9.8 9.6 11.5-7.6 5.2 11.3-3-13 10-5.3-10.1 2.8L79.8 28l-3.5 10.8-7.4-4.8 5.6 7.1z"/><path fill="#FFF" d="M73.2 114.9l2.5-4.3-2.6-2.6 3.8 1.1 3.8-3.2-2 4.3 2.6 3.6-4.1-2-4 3.1zM31.9 103l3.2-2.2 2.8 1.7-1.1-2.9 2.8-3.9-3.8 2.7-2.4-1.2.7 2.6-2.2 3.2zm68.1 24.7l1.8-7.3-3.2-1.8h4.2l2-4.8-.8 5.9 2.5 1.5-3.4.1-3.1 6.4zm16.6-25.8l3.5-1.4 2.4 2.2-.6-3.2 3.4-3.2-4.2 1.7-2.1-1.8.2 2.7-2.6 3zM144 50.4l-4.2 1.9L138 49l.2 4.3-3.5 3.5 4.2-1.3 2.7 3.5-1-4.8 3.4-3.8z"/><g><path fill="none" stroke="#FFF" stroke-width="10" stroke-linejoin="round" stroke-miterlimit="10" d="M115.5 105.9L91 79.5l-24.5 26.4 4.4 4.1L88 91.6v48.9h6V91.6l17.1 18.4z"/><path fill="#67AF2B" d="M115.5 105.9L91 79.5l-24.5 26.4 4.4 4.1L88 91.6v48.9h6V91.6l17.1 18.4z"/></g><g><path fill="none" stroke="#FFF" stroke-width="10" stroke-linejoin="round" stroke-miterlimit="10" d="M150.1 124L133 142.4V93.5h-6v48.9L109.9 124l-4.4 4.1 24.5 26.4 24.5-26.4z"/><path fill="#CF0001" d="M150.1 124L133 142.4V93.5h-6v48.9L109.9 124l-4.4 4.1 24.5 26.4 24.5-26.4z"/></g></svg>